<svg xmlns="http://www.w3.org/2000/svg" xmlns:xlink="http://www.w3.org/1999/xlink" version="1.1" width="1000" height="1000" viewBox="0 0 1000 1000" xml:space="preserve">
<desc>Created with Fabric.js 3.5.0</desc>
<defs>
</defs>
<rect x="0" y="0" width="100%" height="100%" fill="#ffffff"/>
<g transform="matrix(5.1653 0 0 5.1653 604.5155 530.3032)" id="247560">
<g style="" vector-effect="non-scaling-stroke">
		<g transform="matrix(1 0 0 1 -35.8453 0.4359)">
<path style="stroke: none; stroke-width: 1; stroke-dasharray: none; stroke-linecap: butt; stroke-dashoffset: 0; stroke-linejoin: miter; stroke-miterlimit: 4; is-custom-font: none; font-file-url: none; fill: rgb(255,255,255); fill-rule: nonzero; opacity: 1;" transform=" translate(-52.1547, -16.4359)" d="M 44 9.17592 H 50.2773 V 27.1572 H 54.032 V 9.17592 H 60.3093 V 5.71459 H 44 V 9.17592 Z" stroke-linecap="round"/>
</g>
		<g transform="matrix(1 0 0 1 -21.8575 3.8826)">
<path style="stroke: none; stroke-width: 1; stroke-dasharray: none; stroke-linecap: butt; stroke-dashoffset: 0; stroke-linejoin: miter; stroke-miterlimit: 4; is-custom-font: none; font-file-url: none; fill: rgb(255,255,255); fill-rule: nonzero; opacity: 1;" transform=" translate(-66.1425, -19.8826)" d="M 64.4999 27.5386 C 66.7585 27.5386 68.7239 26.5119 69.3399 25.0159 L 69.6039 27.1572 H 72.7425 V 18.3572 C 72.7425 14.3386 70.3372 12.2266 66.4359 12.2266 C 62.5052 12.2266 59.9239 14.2799 59.9239 17.4186 H 62.9745 C 62.9745 15.8933 64.1479 15.0133 66.2599 15.0133 C 68.0785 15.0133 69.2519 15.8053 69.2519 17.7706 V 18.0932 L 64.9105 18.4159 C 61.4785 18.6799 59.5425 20.3519 59.5425 23.0213 C 59.5425 25.7492 61.4199 27.5386 64.4999 27.5386 Z M 65.6732 24.8399 C 64.0599 24.8399 63.1799 24.1946 63.1799 22.8746 C 63.1799 21.7012 64.0305 20.9679 66.2599 20.7626 L 69.2812 20.5279 V 21.2906 C 69.2812 23.5199 67.8732 24.8399 65.6732 24.8399 Z" stroke-linecap="round"/>
</g>
		<g transform="matrix(1 0 0 1 -9.9818 0.3039)">
<path style="stroke: none; stroke-width: 1; stroke-dasharray: none; stroke-linecap: butt; stroke-dashoffset: 0; stroke-linejoin: miter; stroke-miterlimit: 4; is-custom-font: none; font-file-url: none; fill: rgb(255,255,255); fill-rule: nonzero; opacity: 1;" transform=" translate(-78.0182, -16.3039)" d="M 78.0475 9.76258 C 79.2209 9.76258 80.1889 8.79458 80.1889 7.59192 C 80.1889 6.38925 79.2209 5.45059 78.0475 5.45059 C 76.8155 5.45059 75.8475 6.38925 75.8475 7.59192 C 75.8475 8.79458 76.8155 9.76258 78.0475 9.76258 Z M 76.2582 27.1572 H 79.8369 V 12.6666 H 76.2582 V 27.1572 Z" stroke-linecap="round"/>
</g>
		<g transform="matrix(1 0 0 1 -2.6324 0.2452)">
<path style="stroke: none; stroke-width: 1; stroke-dasharray: none; stroke-linecap: butt; stroke-dashoffset: 0; stroke-linejoin: miter; stroke-miterlimit: 4; is-custom-font: none; font-file-url: none; fill: rgb(255,255,255); fill-rule: nonzero; opacity: 1;" transform=" translate(-85.3675, -16.2452)" d="M 87.1422 27.1572 V 5.33325 H 83.5929 V 27.1572 H 87.1422 Z" stroke-linecap="round"/>
</g>
		<g transform="matrix(1 0 0 1 11.0364 0.4359)">
<path style="stroke: none; stroke-width: 1; stroke-dasharray: none; stroke-linecap: butt; stroke-dashoffset: 0; stroke-linejoin: miter; stroke-miterlimit: 4; is-custom-font: none; font-file-url: none; fill: rgb(255,255,255); fill-rule: nonzero; opacity: 1;" transform=" translate(-99.0365, -16.4359)" d="M 93.2722 27.1572 L 95.0029 22.1999 H 103.011 L 104.742 27.1572 H 108.702 L 100.958 5.71459 H 97.1149 L 89.3709 27.1572 H 93.2722 Z M 98.5522 12.1093 C 98.7576 11.5226 98.9335 10.8773 99.0215 10.4666 C 99.0802 10.9066 99.2855 11.5519 99.4615 12.1093 L 101.926 19.0319 H 96.1175 L 98.5522 12.1093 Z" stroke-linecap="round"/>
</g>
		<g transform="matrix(1 0 0 1 28.9945 0.4359)">
<path style="stroke: none; stroke-width: 1; stroke-dasharray: none; stroke-linecap: butt; stroke-dashoffset: 0; stroke-linejoin: miter; stroke-miterlimit: 4; is-custom-font: none; font-file-url: none; fill: rgb(255,255,255); fill-rule: nonzero; opacity: 1;" transform=" translate(-116.9945, -16.4359)" d="M 116.158 27.5386 C 118.358 27.5386 120.236 26.5706 121.116 24.8986 L 121.35 27.1572 H 124.636 V 5.33325 H 121.086 V 14.5146 C 120.177 13.0773 118.388 12.2266 116.364 12.2266 C 111.993 12.2266 109.353 15.4533 109.353 19.9706 C 109.353 24.4586 111.964 27.5386 116.158 27.5386 Z M 116.95 24.2532 C 114.457 24.2532 112.932 22.4346 112.932 19.8533 C 112.932 17.2719 114.457 15.4239 116.95 15.4239 C 119.444 15.4239 121.057 17.2426 121.057 19.8533 C 121.057 22.4639 119.444 24.2532 116.95 24.2532 Z" stroke-linecap="round"/>
</g>
		<g transform="matrix(1 0 0 1 51.585 3.6919)">
<path style="stroke: none; stroke-width: 1; stroke-dasharray: none; stroke-linecap: butt; stroke-dashoffset: 0; stroke-linejoin: miter; stroke-miterlimit: 4; is-custom-font: none; font-file-url: none; fill: rgb(255,255,255); fill-rule: nonzero; opacity: 1;" transform=" translate(-139.585, -19.6919)" d="M 131.944 27.1572 V 18.9439 C 131.944 16.5973 133.322 15.4826 135.024 15.4826 C 136.725 15.4826 137.81 16.5679 137.81 18.5919 V 27.1572 H 141.389 V 18.9439 C 141.389 16.5679 142.709 15.4533 144.44 15.4533 C 146.141 15.4533 147.256 16.5386 147.256 18.6213 V 27.1572 H 150.805 V 17.6826 C 150.805 14.3386 148.869 12.2266 145.349 12.2266 C 143.149 12.2266 141.448 13.3119 140.714 14.9839 C 139.952 13.3119 138.426 12.2266 136.226 12.2266 C 134.144 12.2266 132.677 13.1653 131.944 14.3679 L 131.65 12.6666 H 128.365 V 27.1572 H 131.944 Z" stroke-linecap="round"/>
</g>
		<g transform="matrix(1 0 0 1 68.078 0.3039)">
<path style="stroke: none; stroke-width: 1; stroke-dasharray: none; stroke-linecap: butt; stroke-dashoffset: 0; stroke-linejoin: miter; stroke-miterlimit: 4; is-custom-font: none; font-file-url: none; fill: rgb(255,255,255); fill-rule: nonzero; opacity: 1;" transform=" translate(-156.078, -16.3039)" d="M 156.107 9.76258 C 157.281 9.76258 158.249 8.79458 158.249 7.59192 C 158.249 6.38925 157.281 5.45059 156.107 5.45059 C 154.875 5.45059 153.907 6.38925 153.907 7.59192 C 153.907 8.79458 154.875 9.76258 156.107 9.76258 Z M 154.318 27.1572 H 157.897 V 12.6666 H 154.318 V 27.1572 Z" stroke-linecap="round"/>
</g>
		<g transform="matrix(1 0 0 1 80.4725 3.6919)">
<path style="stroke: none; stroke-width: 1; stroke-dasharray: none; stroke-linecap: butt; stroke-dashoffset: 0; stroke-linejoin: miter; stroke-miterlimit: 4; is-custom-font: none; font-file-url: none; fill: rgb(255,255,255); fill-rule: nonzero; opacity: 1;" transform=" translate(-168.4725, -19.6919)" d="M 165.173 27.1572 V 19.3546 C 165.173 17.0079 166.522 15.4826 168.722 15.4826 C 170.57 15.4826 171.773 16.6559 171.773 19.0906 V 27.1572 H 175.351 V 18.2399 C 175.351 14.4853 173.474 12.2266 169.837 12.2266 C 167.871 12.2266 166.111 13.0773 165.202 14.5439 L 164.909 12.6666 H 161.594 V 27.1572 H 165.173 Z" stroke-linecap="round"/>
</g>
		<g transform="matrix(1 0 0 1 -72 0)">
<path style="stroke: none; stroke-width: 1; stroke-dasharray: none; stroke-linecap: butt; stroke-dashoffset: 0; stroke-linejoin: miter; stroke-miterlimit: 4; is-custom-font: none; font-file-url: none; fill: rgb(60,80,224); fill-rule: nonzero; opacity: 1;" transform=" translate(-16, -16)" d="M 0 8.42105 C 0 3.77023 3.77023 0 8.42105 0 H 23.5789 C 28.2298 0 32 3.77023 32 8.42105 V 23.5789 C 32 28.2298 28.2298 32 23.5789 32 H 8.42105 C 3.77023 32 0 28.2298 0 23.5789 V 8.42105 Z" stroke-linecap="round"/>
</g>
		<g transform="matrix(1 0 0 1 -77.8944 0.0003)">
<path style="stroke: none; stroke-width: 1; stroke-dasharray: none; stroke-linecap: butt; stroke-dashoffset: 0; stroke-linejoin: miter; stroke-miterlimit: 4; is-custom-font: none; font-file-url: none; fill: rgb(255,255,255); fill-rule: nonzero; opacity: 1;" transform=" translate(-10.1056, -16.0002)" d="M 8.42139 8.42127 C 8.42139 7.49111 9.17543 6.73706 10.1056 6.73706 V 6.73706 C 11.0358 6.73706 11.7898 7.49111 11.7898 8.42127 V 23.5792 C 11.7898 24.5093 11.0358 25.2634 10.1056 25.2634 V 25.2634 C 9.17543 25.2634 8.42139 24.5093 8.42139 23.5792 V 8.42127 Z" stroke-linecap="round"/>
</g>
		<g transform="matrix(1 0 0 1 -71.579 3.3681)">
<path style="stroke: none; stroke-width: 1; stroke-dasharray: none; stroke-linecap: butt; stroke-dashoffset: 0; stroke-linejoin: miter; stroke-miterlimit: 4; is-custom-font: none; font-file-url: none; fill: rgb(255,255,255); fill-rule: nonzero; opacity: 0.9;" transform=" translate(-16.421, -19.3681)" d="M 14.7368 15.1576 C 14.7368 14.2274 15.4909 13.4734 16.421 13.4734 V 13.4734 C 17.3512 13.4734 18.1052 14.2274 18.1052 15.1576 V 23.5786 C 18.1052 24.5088 17.3512 25.2629 16.421 25.2629 V 25.2629 C 15.4909 25.2629 14.7368 24.5088 14.7368 23.5786 V 15.1576 Z" stroke-linecap="round"/>
</g>
		<g transform="matrix(1 0 0 1 -65.2635 1.2627)">
<path style="stroke: none; stroke-width: 1; stroke-dasharray: none; stroke-linecap: butt; stroke-dashoffset: 0; stroke-linejoin: miter; stroke-miterlimit: 4; is-custom-font: none; font-file-url: none; fill: rgb(255,255,255); fill-rule: nonzero; opacity: 0.7;" transform=" translate(-22.7364, -17.2627)" d="M 21.0522 10.9469 C 21.0522 10.0167 21.8063 9.2627 22.7365 9.2627 V 9.2627 C 23.6666 9.2627 24.4207 10.0167 24.4207 10.9469 V 23.5785 C 24.4207 24.5086 23.6666 25.2627 22.7365 25.2627 V 25.2627 C 21.8063 25.2627 21.0522 24.5086 21.0522 23.5785 V 10.9469 Z" stroke-linecap="round"/>
</g>
</g>
</g>
<g transform="matrix(1 0 0 1 500 532.14)" style="" id="676387">
		
<path xml:space="preserve" font-family="Lato" font-size="56" font-style="normal" font-weight="normal" style="stroke: none; stroke-width: 1; stroke-dasharray: none; stroke-linecap: butt; stroke-dashoffset: 0; stroke-linejoin: miter; stroke-miterlimit: 4; is-custom-font: none; font-file-url: none; fill: rgb(255,255,255); fill-rule: nonzero; opacity: 1; white-space: pre;" d="M-78.90-22.53L-78.90 13.03L-61.54 13.03L-61.54 17.59L-84.34 17.59L-84.34-22.53L-78.90-22.53ZM-43.15 2.58L-49.59 2.58L-49.59 17.59L-54.99 17.59L-54.99-22.53L-43.15-22.53Q-39.34-22.53-36.53-21.65Q-33.71-20.77-31.86-19.14Q-30.02-17.52-29.11-15.22Q-28.20-12.93-28.20-10.10L-28.20-10.10Q-28.20-7.30-29.18-4.98Q-30.16-2.65-32.05-0.97Q-33.94 0.71-36.74 1.65Q-39.54 2.58-43.15 2.58L-43.15 2.58ZM-49.59-18.25L-49.59-1.73L-43.15-1.73Q-40.82-1.73-39.05-2.34Q-37.27-2.96-36.06-4.07Q-34.86-5.17-34.24-6.71Q-33.63-8.25-33.63-10.10L-33.63-10.10Q-33.63-13.94-35.99-16.09Q-38.36-18.25-43.15-18.25L-43.15-18.25L-49.59-18.25ZM-8.93 2.58L-15.37 2.58L-15.37 17.59L-20.78 17.59L-20.78-22.53L-8.93-22.53Q-5.12-22.53-2.31-21.65Q0.50-20.77 2.35-19.14Q4.20-17.52 5.11-15.22Q6.02-12.93 6.02-10.10L6.02-10.10Q6.02-7.30 5.04-4.98Q4.06-2.65 2.17-0.97Q0.28 0.71-2.52 1.65Q-5.32 2.58-8.93 2.58L-8.93 2.58ZM-15.37-18.25L-15.37-1.73L-8.93-1.73Q-6.61-1.73-4.83-2.34Q-3.05-2.96-1.85-4.07Q-0.64-5.17-0.03-6.71Q0.59-8.25 0.59-10.10L0.59-10.10Q0.59-13.94-1.78-16.09Q-4.14-18.25-8.93-18.25L-8.93-18.25L-15.37-18.25ZM32.62 3.09L32.62 3.09Q33.01 3.76 33.31 4.50Q33.60 5.24 33.88 6.00L33.88 6.00Q34.16 5.22 34.47 4.50Q34.78 3.79 35.17 3.06L35.17 3.06L48.75-21.61Q49.11-22.25 49.50-22.39Q49.90-22.53 50.62-22.53L50.62-22.53L54.63-22.53L54.63 17.59L49.87 17.59L49.87-11.89Q49.87-12.48 49.90-13.15Q49.92-13.82 49.98-14.52L49.98-14.52L36.23 10.56Q35.53 11.82 34.27 11.82L34.27 11.82L33.49 11.82Q32.23 11.82 31.53 10.56L31.53 10.56L17.47-14.61Q17.56-13.88 17.60-13.18Q17.64-12.48 17.64-11.89L17.64-11.89L17.64 17.59L12.88 17.59L12.88-22.53L16.88-22.53Q17.61-22.53 18.00-22.39Q18.40-22.25 18.76-21.61L18.76-21.61L32.62 3.09ZM86.27-18.84L84.95-16.26Q84.70-15.84 84.42-15.63Q84.14-15.42 83.69-15.42L83.69-15.42Q83.22-15.42 82.59-15.90Q81.96-16.37 80.99-16.95Q80.02-17.52 78.67-18.00Q77.31-18.47 75.38-18.47L75.38-18.47Q73.56-18.47 72.16-17.98Q70.76-17.49 69.82-16.65Q68.88-15.81 68.40-14.68Q67.93-13.54 67.93-12.23L67.93-12.23Q67.93-10.55 68.75-9.44Q69.58-8.34 70.94-7.55Q72.30-6.77 74.02-6.19Q75.74-5.62 77.55-5.00Q79.35-4.39 81.07-3.62Q82.80-2.85 84.15-1.67Q85.51-0.50 86.34 1.21Q87.16 2.92 87.16 5.41L87.16 5.41Q87.16 8.04 86.27 10.35Q85.37 12.66 83.65 14.37Q81.93 16.08 79.42 17.06Q76.92 18.04 73.72 18.04L73.72 18.04Q69.83 18.04 66.63 16.63Q63.42 15.21 61.15 12.80L61.15 12.80L62.72 10.23Q62.94 9.92 63.27 9.71Q63.59 9.50 63.98 9.50L63.98 9.50Q64.57 9.50 65.32 10.13Q66.08 10.76 67.21 11.52Q68.35 12.27 69.96 12.90Q71.57 13.53 73.89 13.53L73.89 13.53Q75.82 13.53 77.34 13.00Q78.85 12.47 79.90 11.50Q80.95 10.54 81.51 9.19Q82.07 7.85 82.07 6.20L82.07 6.20Q82.07 4.38 81.24 3.21Q80.42 2.05 79.07 1.27Q77.73 0.48 76.01-0.06Q74.28-0.61 72.48-1.18Q70.67-1.76 68.95-2.51Q67.23-3.27 65.88-4.47Q64.54-5.68 63.71-7.48Q62.89-9.29 62.89-11.95L62.89-11.95Q62.89-14.08 63.71-16.06Q64.54-18.05 66.11-19.59Q67.68-21.13 69.99-22.06Q72.30-22.98 75.29-22.98L75.29-22.98Q78.65-22.98 81.42-21.92Q84.20-20.85 86.27-18.84L86.27-18.84Z"/></g>
</svg>